<svg xmlns="http://www.w3.org/2000/svg" width="150" height="151" fill="none"><g clip-path="url(#a)"><path fill="#ECF4F7" d="M74.94 35.15c-5.58 0-10.102-4.541-10.102-10.143S69.36 14.864 74.94 14.864c5.58 0 10.103 4.541 10.103 10.143S80.519 35.15 74.94 35.15Z"/><path fill="#AAB1BA" d="m112.113 112.964 1.146-1.003a2.406 2.406 0 0 0 .824-1.818v-4.916H35.917v4.916a2.42 2.42 0 0 0 .824 1.818l1.146 1.003a6.529 6.529 0 0 1 2.23 4.921v2.995h69.766v-2.995a6.546 6.546 0 0 1 2.23-4.921Z"/><path fill="#83E1E5" d="M113.167 25.007H97.951v1.219a1.622 1.622 0 0 1-.471 1.142 1.607 1.607 0 0 1-1.137.473h-2.946a18.686 18.686 0 0 1-3.413 8.264l2.086 2.094a1.615 1.615 0 0 1 .349 1.76c-.081.196-.2.374-.35.523l-1.716 1.724a1.607 1.607 0 0 1-1.753.35 1.607 1.607 0 0 1-.521-.35l-2.086-2.094a18.531 18.531 0 0 1-8.23 3.427v2.957a1.62 1.62 0 0 1-.994 1.492 1.602 1.602 0 0 1-.615.123h-2.428a1.602 1.602 0 0 1-1.486-.997 1.62 1.62 0 0 1-.122-.618V43.54a18.53 18.53 0 0 1-8.231-3.427L61.8 42.206a1.607 1.607 0 0 1-1.752.35 1.607 1.607 0 0 1-.522-.35l-1.717-1.724a1.615 1.615 0 0 1-.349-1.76c.081-.195.2-.373.35-.523l2.085-2.094a18.686 18.686 0 0 1-3.413-8.264h-2.825a1.602 1.602 0 0 1-1.486-.997 1.622 1.622 0 0 1-.123-.618v-1.219H36.834c-2.737 0-4.956 2.228-4.956 4.976v60.08c2.231 0 4.04 1.816 4.04 4.055v11.109h78.165V94.118a4.048 4.048 0 0 1 4.04-4.055v-60.08c-.001-2.748-2.22-4.976-4.956-4.976Z"/><path fill="#FDDF7F" d="M93.397 22.174a18.683 18.683 0 0 0-3.413-8.264l2.086-2.094a1.616 1.616 0 0 0 0-2.283l-1.717-1.724a1.607 1.607 0 0 0-1.753-.35c-.195.081-.372.2-.521.35l-2.086 2.094a18.531 18.531 0 0 0-8.23-3.427V3.519a1.62 1.62 0 0 0-.994-1.492 1.603 1.603 0 0 0-.615-.123h-2.428a1.603 1.603 0 0 0-1.486.997c-.08.196-.122.406-.122.618v2.957a18.53 18.53 0 0 0-8.23 3.427L61.8 7.809a1.607 1.607 0 0 0-1.752-.35c-.195.081-.373.2-.522.35L57.81 9.533a1.614 1.614 0 0 0-.348 1.76c.08.195.199.373.348.523l2.086 2.094a18.686 18.686 0 0 0-3.413 8.264h-2.825a1.604 1.604 0 0 0-1.486.997 1.62 1.62 0 0 0-.123.618v2.437a1.62 1.62 0 0 0 .993 1.492c.195.081.404.123.616.123h2.825a18.686 18.686 0 0 0 3.413 8.264l-2.086 2.094a1.614 1.614 0 0 0-.348 1.76c.08.195.199.373.348.523l1.717 1.724a1.61 1.61 0 0 0 1.753.35c.195-.081.372-.2.521-.35l2.086-2.094a18.532 18.532 0 0 0 8.23 3.427v2.957a1.62 1.62 0 0 0 .994 1.492c.195.08.404.123.615.123h2.428a1.602 1.602 0 0 0 1.486-.997c.08-.196.122-.406.122-.618v-2.957a18.53 18.53 0 0 0 8.23-3.427l2.087 2.094a1.61 1.61 0 0 0 1.752.35c.195-.081.373-.2.522-.35l1.717-1.724a1.615 1.615 0 0 0 .349-1.76c-.081-.196-.2-.374-.35-.523l-2.085-2.094a18.686 18.686 0 0 0 3.413-8.264h2.946a1.602 1.602 0 0 0 1.486-.997c.08-.196.122-.406.122-.618v-2.437a1.619 1.619 0 0 0-.993-1.492 1.604 1.604 0 0 0-.615-.123h-2.946ZM74.94 35.15c-5.58 0-10.102-4.54-10.102-10.143 0-5.602 4.523-10.143 10.102-10.143 5.58 0 10.103 4.541 10.103 10.143S80.519 35.15 74.94 35.15Zm43.182 54.913a4.047 4.047 0 0 0-4.039 4.055v16.025a2.423 2.423 0 0 1-.824 1.818l-1.146 1.003a6.546 6.546 0 0 0-2.23 4.921v21.085h15.395l5.851-16.993a38.687 38.687 0 0 0 .296-24.29l-7.675-24.188a2.899 2.899 0 0 0-1.045-1.458 2.874 2.874 0 0 0-1.701-.557 2.888 2.888 0 0 0-2.882 2.893v15.686Z"/><path fill="#AAB1BA" d="M109.883 138.97h15.395v10.524h-15.395V138.97Z"/><path fill="#FDDF7F" d="M31.878 90.063c2.23 0 4.04 1.815 4.04 4.055v16.025a2.421 2.421 0 0 0 .823 1.818l1.146 1.003a6.527 6.527 0 0 1 2.23 4.921v21.085H24.722l-5.851-16.993a38.685 38.685 0 0 1-.296-24.29l7.675-24.188a2.893 2.893 0 0 1 1.045-1.458 2.874 2.874 0 0 1 1.7-.558 2.888 2.888 0 0 1 2.883 2.894v15.686Z"/><path fill="#AAB1BA" d="M24.722 138.97h15.395v10.524H24.722V138.97Z"/><path fill="#1C1D21" d="M74.94 13.358c-6.398 0-11.603 5.226-11.603 11.649 0 6.423 5.205 11.65 11.603 11.65s11.603-5.227 11.603-11.65-5.206-11.65-11.603-11.65Zm0 20.286c-4.744 0-8.603-3.874-8.603-8.637s3.86-8.637 8.603-8.637c4.744 0 8.603 3.874 8.603 8.637s-3.86 8.637-8.603 8.637Zm-13.782 23.27c-.829 0-1.5-.675-1.5-1.507 0-.831.671-1.505 1.5-1.505h27.684c.828 0 1.5.674 1.5 1.505 0 .833-.672 1.507-1.5 1.507H61.158Zm-7.758 0c-.829 0-1.5-.675-1.5-1.507 0-.831.671-1.505 1.5-1.505h1.433c.829 0 1.5.674 1.5 1.505 0 .833-.671 1.507-1.5 1.507H53.4Zm41.767 0c-.829 0-1.5-.675-1.5-1.507 0-.831.671-1.505 1.5-1.505H96.6c.829 0 1.5.674 1.5 1.505 0 .833-.671 1.507-1.5 1.507h-1.433Zm24.498 87.318c0 .399-.158.782-.44 1.065a1.498 1.498 0 0 1-1.06.441h-1.168c-.829 0-1.5-.674-1.5-1.506s.671-1.506 1.5-1.506h1.168a1.507 1.507 0 0 1 1.5 1.506ZM30.378 52.705v-1.25c0-.831.671-1.506 1.5-1.506s1.5.675 1.5 1.506v1.25c0 .832-.671 1.506-1.5 1.506s-1.5-.674-1.5-1.506Zm4.125 91.527a1.499 1.499 0 0 1-1.5 1.506h-1.168c-.828 0-1.5-.674-1.5-1.506s.672-1.506 1.5-1.506h1.168a1.499 1.499 0 0 1 1.5 1.506Zm-1.14-132.28c0-.399.158-.782.44-1.064a1.497 1.497 0 0 1 1.06-.441h1.954V8.485c0-.832.671-1.506 1.5-1.506.828 0 1.5.674 1.5 1.506v1.962h1.953c.828 0 1.5.674 1.5 1.506s-.672 1.506-1.5 1.506h-1.953v1.96c0 .833-.672 1.507-1.5 1.507-.829 0-1.5-.674-1.5-1.506v-1.961h-1.954a1.494 1.494 0 0 1-1.386-.93 1.51 1.51 0 0 1-.114-.576Zm90.823 41.056c0-.4.158-.782.439-1.065a1.497 1.497 0 0 1 1.061-.44h1.953V49.54c0-.832.671-1.506 1.5-1.506s1.5.674 1.5 1.506v1.961h1.953c.829 0 1.5.674 1.5 1.506s-.671 1.506-1.5 1.506h-1.953v1.961c0 .832-.671 1.506-1.5 1.506s-1.5-.674-1.5-1.506v-1.96h-1.953c-.398 0-.78-.16-1.061-.442a1.51 1.51 0 0 1-.439-1.065ZM4.95 149.494c0 .399-.158.782-.44 1.065a1.499 1.499 0 0 1-1.06.441h-1.8c-.829 0-1.5-.674-1.5-1.506s.671-1.506 1.5-1.506h1.8a1.499 1.499 0 0 1 1.5 1.506Zm144.9 0a1.5 1.5 0 0 1-1.5 1.506h-1.8c-.829 0-1.5-.674-1.5-1.506s.671-1.506 1.5-1.506h1.8a1.5 1.5 0 0 1 1.5 1.506Zm-8.4-1.506h-13.011a1.66 1.66 0 0 1-1.174-.489 1.674 1.674 0 0 1-.487-1.179v-7.097l5.769-16.754c2.791-8.105 2.9-17.068.307-25.24l-7.675-24.188a4.382 4.382 0 0 0-1.587-2.219 4.356 4.356 0 0 0-3.97-.617V29.983c0-3.574-2.896-6.482-6.455-6.482h-13.73a3.116 3.116 0 0 0-3.095-2.833h-1.699a20.321 20.321 0 0 0-2.717-6.578l1.204-1.21a3.134 3.134 0 0 0 0-4.413l-1.717-1.723a3.102 3.102 0 0 0-4.395 0l-1.204 1.209a20.17 20.17 0 0 0-6.552-2.729V3.518c0-1.72-1.394-3.12-3.108-3.12h-2.428a3.118 3.118 0 0 0-3.108 3.12v1.706a20.157 20.157 0 0 0-6.552 2.729l-1.204-1.209a3.102 3.102 0 0 0-4.396 0L56.75 8.467a3.133 3.133 0 0 0 0 4.414l1.204 1.209a20.342 20.342 0 0 0-2.718 6.578h-1.579a3.116 3.116 0 0 0-3.093 2.833h-13.73c-3.56 0-6.456 2.908-6.456 6.482v15.544c0 .832.671 1.506 1.5 1.506.828 0 1.5-.674 1.5-1.506V29.983c0-1.913 1.55-3.47 3.455-3.47h13.73l.001.015c.005.043.012.084.018.127.008.058.016.118.027.175.008.043.02.085.03.128.013.055.026.11.042.164.013.042.028.083.043.125.018.052.036.105.057.156.016.04.035.08.053.12.023.05.046.099.071.148.02.038.042.076.064.114a3.11 3.11 0 0 0 .338.476 3.128 3.128 0 0 0 .795.662c.037.021.074.043.112.063.049.026.1.05.15.073.038.018.076.037.116.053.052.022.106.04.16.06.04.013.079.028.119.04.057.018.116.031.175.045.038.01.076.02.115.028.066.014.133.022.2.031.034.005.066.011.1.014.102.01.205.016.309.016h1.579a20.334 20.334 0 0 0 2.717 6.578l-1.204 1.21a3.132 3.132 0 0 0 0 4.413l1.717 1.724a3.107 3.107 0 0 0 4.396 0l1.204-1.21a20.17 20.17 0 0 0 6.552 2.73v1.705c0 1.72 1.394 3.12 3.108 3.12h2.427c1.714 0 3.109-1.4 3.109-3.12V44.79a20.197 20.197 0 0 0 6.551-2.728l1.204 1.209c.043.042.088.08.133.12.033.03.065.062.099.09.026.021.054.04.081.06.057.044.113.088.172.127l.032.02c.5.325 1.085.497 1.681.496.61 0 1.19-.176 1.69-.502l.023-.014c.062-.041.122-.087.181-.134.024-.018.049-.034.072-.053.037-.031.072-.066.108-.099.042-.037.084-.072.124-.112l1.716-1.724a3.133 3.133 0 0 0 0-4.413l-1.204-1.209c.497-.78.94-1.592 1.325-2.431a20.298 20.298 0 0 0 1.393-4.147h1.7c.104 0 .207-.006.308-.016.032-.003.063-.01.095-.013.069-.01.138-.018.206-.032.037-.008.073-.018.11-.027.06-.014.121-.028.18-.047.039-.011.076-.026.114-.039.055-.019.11-.038.165-.06.038-.016.075-.034.112-.051.052-.025.104-.048.155-.075.036-.02.072-.04.107-.062a2.941 2.941 0 0 0 .688-.542 3.02 3.02 0 0 0 .29-.352c.025-.035.05-.07.073-.106.03-.046.057-.093.085-.14.021-.038.043-.075.063-.113.025-.049.049-.099.072-.15l.053-.118c.02-.051.039-.104.057-.157.014-.041.03-.082.042-.124.016-.054.029-.11.042-.165.01-.043.022-.084.03-.127.012-.058.019-.117.027-.176l.018-.126.002-.015h13.729a3.466 3.466 0 0 1 3.455 3.47v58.78a5.568 5.568 0 0 0-4.039 5.355v9.602H37.417v-9.602a5.568 5.568 0 0 0-4.039-5.354V58.229c0-.832-.671-1.506-1.5-1.506s-1.5.674-1.5 1.506v11.976a4.355 4.355 0 0 0-3.97.617 4.384 4.384 0 0 0-1.587 2.22l-7.675 24.187c-2.594 8.171-2.484 17.135.307 25.24l5.769 16.754v7.097a1.665 1.665 0 0 1-1.661 1.668H8.55c-.829 0-1.5.674-1.5 1.506S7.721 151 8.55 151h13.011c2.57 0 4.661-2.1 4.661-4.68v-5.844h12.394v9.018c0 .832.672 1.506 1.5 1.506.829 0 1.5-.674 1.5-1.506v-27.108h66.767v27.108c0 .832.672 1.506 1.5 1.506.829 0 1.5-.674 1.5-1.506v-9.018h12.395v5.844c0 2.581 2.091 4.68 4.661 4.68h13.011c.828 0 1.5-.674 1.5-1.506s-.671-1.506-1.5-1.506ZM93.397 26.334a1.497 1.497 0 0 0-1.483 1.28 17.265 17.265 0 0 1-3.138 7.598 1.51 1.51 0 0 0 .147 1.957l2.086 2.094a.11.11 0 0 1 .023.119.108.108 0 0 1-.023.035l-1.717 1.724a.109.109 0 0 1-.151 0h-.002l-2.086-2.094a1.499 1.499 0 0 0-1.95-.148 17.12 17.12 0 0 1-7.566 3.15 1.499 1.499 0 0 0-.912.508 1.51 1.51 0 0 0-.363.981v2.958a.11.11 0 0 1-.108.108h-2.428a.108.108 0 0 1-.108-.108v-2.958c0-.36-.129-.708-.363-.981a1.498 1.498 0 0 0-.912-.508 17.125 17.125 0 0 1-7.567-3.15 1.49 1.49 0 0 0-.223-.136c-.023-.011-.048-.019-.071-.029a1.466 1.466 0 0 0-.166-.063c-.029-.009-.058-.014-.088-.021a1.487 1.487 0 0 0-.158-.03c-.031-.004-.062-.005-.094-.007-.03-.002-.06-.007-.089-.007-.018 0-.036.004-.054.005a1.477 1.477 0 0 0-.154.015c-.04.006-.08.011-.12.02a1.478 1.478 0 0 0-.155.047c-.036.012-.073.022-.108.037-.056.026-.11.055-.163.087-.028.016-.056.029-.083.047-.08.054-.155.115-.224.183l-2.085 2.094a.109.109 0 0 1-.154 0l-1.716-1.724a.107.107 0 0 1-.032-.077.108.108 0 0 1 .032-.077l2.085-2.093a1.509 1.509 0 0 0 .148-1.958 17.262 17.262 0 0 1-3.139-7.597 1.508 1.508 0 0 0-.505-.916 1.497 1.497 0 0 0-.977-.364h-2.826a.108.108 0 0 1-.108-.109v-2.438c0-.06.049-.108.108-.108h2.826c.358 0 .705-.13.977-.364.272-.235.452-.56.505-.916a17.264 17.264 0 0 1 3.139-7.597 1.51 1.51 0 0 0-.148-1.958l-2.085-2.094a.11.11 0 0 1 0-.154l1.716-1.723a.109.109 0 0 1 .154 0l2.085 2.093a1.497 1.497 0 0 0 1.95.149 17.123 17.123 0 0 1 7.567-3.151c.355-.054.678-.234.912-.507a1.51 1.51 0 0 0 .363-.982V3.519c0-.06.049-.11.108-.11h2.428c.06 0 .108.05.108.11v2.957c0 .36.129.708.363.982.234.273.557.453.912.507a17.122 17.122 0 0 1 7.567 3.15 1.496 1.496 0 0 0 1.95-.147l2.085-2.094a.108.108 0 0 1 .153 0l1.717 1.723a.109.109 0 0 1 0 .154l-2.085 2.094a1.508 1.508 0 0 0-.148 1.958 17.264 17.264 0 0 1 3.138 7.597 1.507 1.507 0 0 0 1.483 1.28h2.946c.06 0 .108.049.108.108v2.438a.11.11 0 0 1-.032.077.109.109 0 0 1-.076.032h-2.946Zm-67.606 111.13-5.503-15.979c-2.58-7.496-2.682-15.785-.284-23.342l7.675-24.188a1.384 1.384 0 0 1 1.317-.965c.367 0 .718.146.977.406s.405.613.405.98V88.77a5.564 5.564 0 0 0-4.04 5.348v13.468c0 .832.672 1.506 1.5 1.506.83 0 1.5-.674 1.5-1.506V94.118c0-1.406 1.14-2.55 2.54-2.55 1.4 0 2.54 1.144 2.54 2.55v16.025c0 1.133.487 2.21 1.337 2.954l1.146 1.002a5.03 5.03 0 0 1 1.716 3.786v19.579H25.79Zm15.826-18.091v-1.488a8.033 8.033 0 0 0-2.744-6.056l-1.146-1.003a.91.91 0 0 1-.31-.683v-3.41h75.166v3.41a.91.91 0 0 1-.309.683l-1.146 1.003a8.027 8.027 0 0 0-2.026 2.729 8.068 8.068 0 0 0-.718 3.327v1.488H41.617Zm69.766 18.091v-19.578a5.03 5.03 0 0 1 1.716-3.786l1.146-1.003a3.928 3.928 0 0 0 1.338-2.954V94.118a2.547 2.547 0 0 1 2.539-2.549c1.4 0 2.539 1.144 2.539 2.55v13.467c0 .832.672 1.506 1.5 1.506.829 0 1.5-.674 1.5-1.506V94.118a5.564 5.564 0 0 0-4.039-5.348V74.376c0-.367.146-.72.405-.98a1.38 1.38 0 0 1 2.294.56l7.675 24.187c2.398 7.557 2.297 15.846-.284 23.342l-5.503 15.979h-12.826Z"/></g><defs><clipPath id="a"><path fill="#fff" d="M0 .398h150V151H0z"/></clipPath></defs></svg>