<svg xmlns="http://www.w3.org/2000/svg" width="150" height="148" fill="none"><g clip-path="url(#a)"><path fill="#ECF4F7" d="M123.419 1.839H26.581c-4.27 0-7.73 3.406-7.73 7.608v108.538c0 4.202 3.46 7.608 7.73 7.608h96.838c4.269 0 7.73-3.406 7.73-7.608V9.447c0-4.202-3.461-7.608-7.73-7.608Z"/><path fill="#AAB1BA" d="M123.419 125.593H26.581c-4.27 0-7.73-3.406-7.73-7.608v20.931c0 4.201 3.46 7.607 7.73 7.607h96.838c4.269 0 7.73-3.406 7.73-7.607v-20.931c0 4.202-3.461 7.608-7.73 7.608Z"/><path fill="#FDDF7F" d="M97.526 93.409v16.833l7.208-5.564 7.207 5.564V93.409a11.508 11.508 0 0 1-7.207 2.516c-2.732 0-5.24-.944-7.208-2.516Z"/><path fill="#83E1E5" d="M104.734 95.925c6.321 0 11.446-5.044 11.446-11.266s-5.125-11.265-11.446-11.265c-6.322 0-11.446 5.043-11.446 11.265s5.124 11.266 11.446 11.266Z"/><path fill="#FDDF7F" d="M82.927 31.93h-31.35a1.89 1.89 0 0 1-1.326-.54 1.831 1.831 0 0 1-.549-1.305V26.54c0-.49.198-.959.55-1.305a1.89 1.89 0 0 1 1.325-.54h31.35c.497 0 .974.194 1.326.54.352.346.55.816.55 1.305v3.544c0 .489-.198.958-.55 1.305a1.89 1.89 0 0 1-1.326.54Zm15.496 0h-5.325a1.89 1.89 0 0 1-1.326-.54 1.831 1.831 0 0 1-.55-1.305V26.54c0-.49.198-.959.55-1.305a1.89 1.89 0 0 1 1.326-.54h5.325c.497 0 .974.194 1.326.54.351.346.549.816.549 1.305v3.544c0 .489-.198.958-.55 1.305a1.89 1.89 0 0 1-1.325.54Z"/><path fill="#1C1D21" d="M123.419.362H26.581c-5.09 0-9.23 4.075-9.23 9.085v129.469c0 5.009 4.14 9.084 9.23 9.084h96.838c5.09 0 9.23-4.075 9.23-9.084V9.446c0-5.009-4.141-9.084-9.23-9.084ZM20.351 9.447c0-3.382 2.795-6.132 6.23-6.132h96.838c3.435 0 6.23 2.75 6.23 6.132v108.538c0 3.381-2.794 6.132-6.23 6.132H26.581c-3.435 0-6.23-2.751-6.23-6.132V9.447Zm103.068 135.6H26.581c-3.435 0-6.23-2.75-6.23-6.131v-3.787a9.275 9.275 0 0 0 6.23 2.388h8.369c.398 0 .78-.155 1.06-.432a1.464 1.464 0 0 0 0-2.088 1.511 1.511 0 0 0-1.06-.432h-8.37c-3.434 0-6.229-2.751-6.229-6.132v-3.751l.014.012c.04.036.082.071.123.106.067.058.134.117.202.173l.143.112c.065.051.129.102.195.151.05.038.103.074.155.111l.196.137.164.107c.065.042.131.084.198.125a15.47 15.47 0 0 0 .374.216c.254.137.515.264.78.38a9.635 9.635 0 0 0 1.017.368 8.872 8.872 0 0 0 .666.171l.195.042c.083.016.167.03.25.044.064.011.127.023.191.032.09.013.18.023.269.034l.18.021c.1.01.202.016.303.023.051.003.102.008.153.01.153.008.307.012.46.012h96.839c.155 0 .309-.004.461-.012.051-.002.102-.007.153-.01.101-.007.202-.013.303-.023l.18-.021c.09-.011.18-.021.269-.034.064-.009.127-.021.19-.032.084-.014.168-.028.251-.044.066-.013.13-.028.195-.042a8.44 8.44 0 0 0 .24-.054 11.093 11.093 0 0 0 .426-.117c.066-.019.13-.04.195-.061a8.758 8.758 0 0 0 1.034-.402 10.036 10.036 0 0 0 .942-.501c.067-.041.133-.083.198-.125.055-.036.11-.07.164-.107l.196-.137c.052-.037.104-.073.155-.111.066-.049.131-.1.195-.151l.143-.112c.068-.056.135-.115.202-.173.041-.035.083-.07.123-.106l.014-.012v3.751c0 3.381-2.795 6.132-6.23 6.132H51c-.398 0-.78.155-1.06.432-.282.277-.44.653-.44 1.044 0 .392.158.767.44 1.044.28.277.662.433 1.06.433h72.419a9.277 9.277 0 0 0 6.23-2.389v3.787c0 3.381-2.795 6.131-6.23 6.131Zm-77.969-9.006c0 .392-.158.767-.44 1.044a1.512 1.512 0 0 1-1.06.433h-2.1c-.398 0-.78-.156-1.06-.433a1.464 1.464 0 0 1 0-2.088 1.512 1.512 0 0 1 1.06-.432h2.1c.398 0 .78.155 1.06.432.282.277.44.653.44 1.044Zm101.708-69.058c0 .392-.158.767-.439 1.044a1.512 1.512 0 0 1-1.061.433h-1.953v1.922c0 .392-.158.767-.439 1.044a1.514 1.514 0 0 1-2.122 0 1.466 1.466 0 0 1-.439-1.044V68.46h-1.953c-.398 0-.78-.156-1.061-.433a1.466 1.466 0 0 1-.439-1.044c0-.391.158-.767.439-1.044a1.512 1.512 0 0 1 1.061-.432h1.953v-1.923c0-.391.158-.767.439-1.043a1.514 1.514 0 0 1 2.122 0c.281.276.439.652.439 1.044v1.922h1.953c.398 0 .78.156 1.061.432.281.277.439.653.439 1.044ZM12.748 82.572a1.456 1.456 0 0 1-.44 1.044 1.502 1.502 0 0 1-1.06.432H9.295v1.923c0 .391-.158.767-.44 1.044a1.512 1.512 0 0 1-1.06.432c-.398 0-.78-.155-1.061-.432a1.465 1.465 0 0 1-.44-1.044v-1.923H4.342c-.398 0-.78-.155-1.06-.432a1.465 1.465 0 0 1-.44-1.044c0-.392.158-.767.44-1.044a1.512 1.512 0 0 1 1.06-.433h1.954v-1.922c0-.392.158-.767.439-1.044a1.513 1.513 0 0 1 1.06-.432c.398 0 .78.155 1.061.432.282.277.44.652.44 1.044v1.922h1.953a1.52 1.52 0 0 1 1.06.433 1.475 1.475 0 0 1 .44 1.044ZM6.295 59.479V21.526c0-.392.158-.767.439-1.044a1.512 1.512 0 0 1 1.06-.432c.398 0 .78.155 1.061.432.282.277.44.652.44 1.044V59.48c0 .392-.159.767-.44 1.044a1.512 1.512 0 0 1-1.06.432c-.398 0-.78-.155-1.061-.432a1.465 1.465 0 0 1-.44-1.044Zm0 10.432v-2.756c0-.391.158-.767.439-1.044a1.513 1.513 0 0 1 1.06-.432c.398 0 .78.156 1.061.432.282.277.44.653.44 1.044v2.756c0 .392-.158.767-.44 1.044a1.512 1.512 0 0 1-1.06.433c-.398 0-.78-.156-1.061-.433a1.465 1.465 0 0 1-.44-1.044Zm137.41 18.815v37.953c0 .392-.158.767-.439 1.044a1.511 1.511 0 0 1-1.061.432 1.51 1.51 0 0 1-1.06-.432 1.462 1.462 0 0 1-.44-1.044V88.726c0-.392.158-.767.44-1.044a1.511 1.511 0 0 1 1.06-.433c.398 0 .78.156 1.061.433.281.277.439.652.439 1.044Zm0-10.432v2.756c0 .391-.158.767-.439 1.044a1.512 1.512 0 0 1-2.121 0 1.462 1.462 0 0 1-.44-1.044v-2.756c0-.392.158-.767.44-1.044a1.511 1.511 0 0 1 1.06-.433c.398 0 .78.156 1.061.433.281.277.439.652.439 1.044Zm-51.917 6.365c0 3.729 1.636 7.089 4.238 9.421v16.162c0 .277.08.548.229.783.149.235.362.424.615.545a1.516 1.516 0 0 0 1.582-.166l6.282-4.85 6.282 4.85a1.516 1.516 0 0 0 1.582.166c.253-.121.466-.31.615-.545.15-.235.229-.506.229-.783V94.08c2.602-2.333 4.238-5.692 4.238-9.42 0-7.027-5.808-12.743-12.946-12.743-7.139 0-12.946 5.716-12.946 12.742Zm18.654 11.434v11.115l-4.782-3.691a1.515 1.515 0 0 0-1.852 0l-4.781 3.691V96.094l.021.009c.87.42 1.787.742 2.731.96l.042.009c.215.049.431.092.649.13l.089.016c.201.033.403.062.606.086.043.005.085.012.127.016.192.021.386.037.58.05.049.003.098.008.147.01a13.354 13.354 0 0 0 1.431 0c.049-.002.098-.007.147-.01.194-.012.387-.029.58-.05a12.84 12.84 0 0 0 .733-.102l.089-.016a12.998 12.998 0 0 0 3.42-1.098l.023-.01Zm-5.708-21.223c5.484 0 9.946 4.391 9.946 9.79 0 4.89-3.664 8.956-8.433 9.675h-.002c-.15.023-.3.041-.451.057l-.078.008c-.131.013-.262.022-.393.03l-.106.006a10.077 10.077 0 0 1-.966 0c-.036-.002-.071-.005-.107-.006a10.13 10.13 0 0 1-.921-.095h-.003c-4.768-.72-8.432-4.785-8.432-9.676 0-5.397 4.462-9.79 9.946-9.79ZM48.202 42.9c0-.391.158-.767.44-1.044a1.512 1.512 0 0 1 1.06-.432h50.596c.398 0 .779.156 1.06.432a1.463 1.463 0 0 1 0 2.088 1.51 1.51 0 0 1-1.06.433H49.702c-.398 0-.78-.156-1.06-.433a1.464 1.464 0 0 1-.44-1.044Zm0 10.187c0-.391.158-.767.44-1.044a1.512 1.512 0 0 1 1.06-.432h50.596c.398 0 .779.155 1.06.432a1.463 1.463 0 0 1 0 2.088 1.51 1.51 0 0 1-1.06.433H49.702c-.398 0-.78-.156-1.06-.433a1.464 1.464 0 0 1-.44-1.044Zm0 10.187c0-.391.158-.767.44-1.044a1.512 1.512 0 0 1 1.06-.432h50.596c.398 0 .779.156 1.06.432a1.463 1.463 0 0 1 0 2.088 1.51 1.51 0 0 1-1.06.433H49.702c-.398 0-.78-.156-1.06-.433a1.464 1.464 0 0 1-.44-1.044Zm0 21.384c0-.391.158-.767.44-1.044a1.512 1.512 0 0 1 1.06-.432h32.5c.398 0 .78.155 1.06.432.282.277.44.653.44 1.044 0 .392-.158.767-.44 1.044a1.512 1.512 0 0 1-1.06.433h-32.5c-.398 0-.78-.156-1.06-.433a1.464 1.464 0 0 1-.44-1.044Zm3.375-51.252h31.35c1.861 0 3.375-1.49 3.375-3.322v-3.543c0-1.832-1.514-3.322-3.375-3.322h-31.35c-1.86 0-3.375 1.49-3.375 3.322v3.543c0 1.831 1.514 3.322 3.375 3.322Zm-.375-6.865c0-.204.169-.37.375-.37h31.35c.207 0 .375.166.375.37v3.543c0 .203-.168.369-.375.369h-31.35a.373.373 0 0 1-.375-.37v-3.542Zm41.896 6.865h5.325c1.861 0 3.375-1.49 3.375-3.322v-3.543c0-1.832-1.514-3.322-3.375-3.322h-5.325c-1.861 0-3.375 1.49-3.375 3.322v3.543c0 1.831 1.514 3.322 3.375 3.322Zm-.375-6.865c0-.204.168-.37.375-.37h5.325c.206 0 .375.166.375.37v3.543c0 .203-.169.369-.375.369h-5.325a.373.373 0 0 1-.375-.37v-3.542Z"/></g><defs><clipPath id="a"><path fill="#fff" d="M0 .362h150V148H0z"/></clipPath></defs></svg>