<svg xmlns="http://www.w3.org/2000/svg" width="170" height="170" fill="none"><g clip-path="url(#a)"><path fill="#0E3850" d="M141.322 98.46V81.192c-.006-5.297-4.298-9.589-9.594-9.594h-7.676V52.408a1.918 1.918 0 0 0-1.919-1.919H110.62a1.92 1.92 0 0 0-1.919 1.92v19.188h-17.27V48.57a1.92 1.92 0 0 0-1.918-1.919H77.999a1.92 1.92 0 0 0-1.918 1.92v23.026H58.81V52.408a1.92 1.92 0 0 0-1.92-1.919H45.38a1.919 1.919 0 0 0-1.92 1.92v19.188h-7.675c-5.295.005-9.587 4.297-9.594 9.594v17.27a11.133 11.133 0 0 0 5.757 9.924v20.777h-3.838a1.919 1.919 0 0 0 0 3.838h111.294a1.919 1.919 0 1 0 0-3.838h-3.838v-20.748a11.546 11.546 0 0 0 5.757-9.953Zm-28.783-44.133h7.675v17.27h-7.675v-17.27Zm-32.62-3.838h7.675v21.108h-7.676V50.489Zm-32.621 3.838h7.675v17.27h-7.675v-17.27Zm-17.27 26.864a5.756 5.756 0 0 1 5.756-5.757h95.944a5.755 5.755 0 0 1 5.756 5.757v17.27a7.723 7.723 0 0 1-4.592 7.042 7.848 7.848 0 0 1-8.511-1.599 7.707 7.707 0 0 1-2.248-5.443v-7.676a7.652 7.652 0 0 0-4.248-6.831l-.117-.064a7.342 7.342 0 0 0-.948-.37c-.191-.064-.366-.126-.557-.172a7.362 7.362 0 0 0-.744-.132c-.168-.024-.329-.074-.501-.088-.092 0-.18.014-.27.01-.091-.004-.19-.028-.29-.028-.213 0-.418.044-.629.06-.211.018-.435.028-.651.064a7.677 7.677 0 0 0-.98.251c-.173.054-.349.092-.518.158a7.31 7.31 0 0 0-1.034.518c-.121.07-.25.119-.369.192-.448.29-.864.627-1.243 1.004a7.629 7.629 0 0 0-2.252 5.428v3.838a7.676 7.676 0 0 1-15.35 0v-3.838a7.656 7.656 0 0 0-4.249-6.831l-.117-.064a7.338 7.338 0 0 0-.948-.37c-.191-.064-.366-.126-.556-.172a7.437 7.437 0 0 0-.744-.132c-.17-.024-.33-.074-.502-.088-.091 0-.18.014-.27.01-.09-.004-.19-.028-.29-.028-.213 0-.418.044-.629.06-.211.018-.435.028-.65.064a7.675 7.675 0 0 0-.98.251c-.174.054-.35.092-.52.158-.355.145-.7.318-1.03.516-.122.07-.253.121-.371.192a7.643 7.643 0 0 0-3.495 6.434v11.513a7.675 7.675 0 1 1-15.351 0V90.785a7.656 7.656 0 0 0-4.248-6.831l-.118-.064a7.334 7.334 0 0 0-.948-.37c-.191-.064-.366-.126-.556-.172a7.437 7.437 0 0 0-.744-.132c-.169-.024-.33-.074-.502-.088a7.675 7.675 0 0 0-8.236 7.657v7.676a7.687 7.687 0 0 1-2.231 5.427 7.918 7.918 0 0 1-8.513 1.618 7.882 7.882 0 0 1-2.358-1.602 7.706 7.706 0 0 1-2.248-5.443V81.19Zm5.756 47.972v-19.348c.192.031.385.04.577.062l.147.016c1.679.174 3.375-.023 4.97-.576.488-.172.963-.375 1.423-.61.099-.048.192-.1.295-.153.372-.203.733-.425 1.082-.667.111-.076.224-.147.333-.228a11.19 11.19 0 0 0 4.606-9.198v-7.676a3.81 3.81 0 0 1 1.755-3.218c.04-.024.084-.042.125-.065.188-.115.385-.213.59-.294.06-.023.12-.037.18-.055.188-.064.38-.112.576-.145.091-.015.191-.018.281-.029.162-.015.324-.02.486-.016.12.005.241.017.36.036.145.017.288.043.429.079.048.011.091.029.137.042a4.193 4.193 0 0 1 2.756 3.99v11.188c0 6.359 5.155 11.514 11.513 11.514 6.36 0 11.513-5.155 11.513-11.514V90.785a3.828 3.828 0 0 1 1.76-3.22c.033-.02.071-.035.104-.055.194-.12.4-.221.612-.304.054-.02.11-.033.163-.05.188-.064.38-.114.576-.15.092-.013.192-.018.276-.027.161-.016.325-.021.487-.016.121.005.241.017.361.036.145.017.287.043.428.079.048.011.092.029.138.042a4.192 4.192 0 0 1 2.77 3.99v3.513c0 6.358 5.156 11.513 11.514 11.513 6.359 0 11.513-5.155 11.513-11.513v-3.838a3.813 3.813 0 0 1 1.756-3.219c.04-.023.084-.041.126-.067a3.95 3.95 0 0 1 .588-.291c.06-.023.123-.037.192-.055.185-.064.374-.112.566-.145.092-.015.192-.018.282-.029.161-.015.323-.02.485-.016.121.005.242.017.361.036.144.017.288.043.428.079.048.011.092.029.138.042a4.19 4.19 0 0 1 2.754 3.99v7.35a11.51 11.51 0 0 0 3.372 8.158c.381.371.786.716 1.214 1.032.125.09.253.171.384.257.319.219.649.423.988.61.512.28 1.044.521 1.592.721.081.029.16.066.242.093 1.053.359 2.151.566 3.263.614h.013a11.61 11.61 0 0 0 1.604-.048l.192-.022c.192-.02.384-.029.576-.06v19.347l-95.952.001Zm47.972-86.35c5.296-.006 9.589-4.298 9.594-9.594 0-4.606-6.675-14.505-8.014-16.441a1.991 1.991 0 0 0-3.159 0c-1.34 1.936-8.015 11.835-8.015 16.441.006 5.296 4.298 9.588 9.594 9.595Zm0-21.476c2.761 4.315 5.757 9.786 5.757 11.882a5.756 5.756 0 1 1-11.514 0c0-2.096 2.996-7.567 5.757-11.882Zm32.621 25.314c5.296-.006 9.588-4.299 9.594-9.594 0-4.606-6.676-14.505-8.015-16.442a1.991 1.991 0 0 0-3.158 0c-1.34 1.937-8.016 11.836-8.016 16.442.007 5.295 4.299 9.588 9.595 9.594Zm0-21.476c2.761 4.315 5.756 9.786 5.756 11.882a5.756 5.756 0 1 1-11.513 0c0-2.096 2.996-7.567 5.757-11.882ZM51.135 46.65c5.297-.006 9.589-4.299 9.595-9.594 0-4.606-6.676-14.505-8.015-16.442a1.993 1.993 0 0 0-3.159 0c-1.34 1.937-8.015 11.836-8.015 16.442.007 5.296 4.299 9.588 9.594 9.594Zm0-21.476c2.762 4.315 5.757 9.786 5.757 11.882a5.756 5.756 0 1 1-11.513 0c0-2.096 2.995-7.567 5.756-11.882Z"/></g><rect width="169" height="169" x=".5" y=".5" stroke="#D4CDCD" rx="84.5"/><defs><clipPath id="a"><path fill="#fff" d="M26 16h117v117H26z"/></clipPath></defs></svg>