<svg xmlns="http://www.w3.org/2000/svg" width="150" height="151" fill="none"><g clip-path="url(#a)"><path fill="#83E1E5" d="M35.491 16.035h79.018V114.4H35.491V16.035Z"/><path fill="#FDDF7F" d="M86.75 58.785h-23.5a3.216 3.216 0 0 1-3.21-3.223V31.966a3.216 3.216 0 0 1 3.21-3.223h23.5a3.216 3.216 0 0 1 3.21 3.223v23.596a3.216 3.216 0 0 1-3.21 3.223Z"/><path fill="#ECF4F7" d="M81.616 43.11 69.823 36a.76.76 0 0 0-1.15.653v14.222a.76.76 0 0 0 1.15.654l11.793-7.111a.764.764 0 0 0 0-1.307Z"/><path fill="#FDDF7F" d="M86.75 101.691h-23.5a3.217 3.217 0 0 1-3.21-3.223V74.872a3.216 3.216 0 0 1 3.21-3.222h23.5a3.216 3.216 0 0 1 3.21 3.222v23.596a3.217 3.217 0 0 1-3.21 3.223Z"/><path fill="#ECF4F7" d="M114.509 36.09h14.425v78.31h-14.425V36.09Zm-93.443 0h14.425v78.31H21.066V36.09Z"/><path fill="#AAB1BA" d="M35.491 27.054h-8.325c-3.369 0-6.1 2.742-6.1 6.125v2.911h14.425v-9.036Zm87.343 0h-8.325v9.036h14.425V33.18c0-3.383-2.731-6.125-6.1-6.125ZM21.066 114.4v9.04c0 3.382 2.731 6.124 6.1 6.124h36.32v9.404c0 .968-.237 1.922-.69 2.777a5.896 5.896 0 0 1-1.91 2.126l-8.32 5.623h44.868l-8.32-5.623a5.896 5.896 0 0 1-1.91-2.126 5.929 5.929 0 0 1-.69-2.777v-9.404h36.32c3.369 0 6.1-2.742 6.1-6.124v-9.04H21.066Z"/><path fill="#ECF4F7" d="M114.509 16.035v-8.67c0-3.017-2.435-5.461-5.439-5.461H40.93c-3.004 0-5.44 2.444-5.44 5.46v8.67h79.019Z"/><path fill="#1C1D21" d="M19.566 5.37c0-.399.158-.782.44-1.064a1.497 1.497 0 0 1 1.06-.441h1.953V1.904c0-.4.158-.783.44-1.065a1.497 1.497 0 0 1 2.56 1.065v1.96h1.954c.397 0 .779.16 1.06.442a1.51 1.51 0 0 1-1.06 2.57h-1.954v1.962c0 .4-.158.782-.439 1.065a1.497 1.497 0 0 1-2.56-1.065V6.877h-1.954c-.398 0-.78-.159-1.06-.441a1.51 1.51 0 0 1-.44-1.065Zm102.155 12.17h1.954v1.962c0 .4.158.782.439 1.065a1.497 1.497 0 0 0 2.121 0c.282-.283.44-.666.44-1.065V17.54h1.953a1.499 1.499 0 0 0 1.5-1.506 1.499 1.499 0 0 0-1.5-1.506h-1.953v-1.961a1.507 1.507 0 0 0-1.5-1.507c-.398 0-.78.16-1.061.441a1.51 1.51 0 0 0-.439 1.066v1.96h-1.954a1.507 1.507 0 0 0 0 3.012ZM73.575 123.489h2.85c.398 0 .78-.158 1.06-.441a1.507 1.507 0 0 0-1.06-2.571h-2.85a1.499 1.499 0 0 0-1.5 1.506c0 .4.158.783.44 1.065.28.283.662.441 1.06.441Zm-50.741 24.5h-1.768a1.499 1.499 0 0 0-1.5 1.506c0 .399.158.782.44 1.065.28.282.662.441 1.06.441h1.768a1.499 1.499 0 0 0 1.5-1.506 1.499 1.499 0 0 0-1.5-1.506Zm106.1 0h-1.768a1.5 1.5 0 0 0-1.5 1.506 1.5 1.5 0 0 0 1.5 1.506h1.768a1.5 1.5 0 0 0 1.5-1.506 1.5 1.5 0 0 0-1.5-1.506Zm1.5-114.81v90.262c0 4.207-3.409 7.63-7.6 7.63h-34.82v7.898c0 1.468.724 2.834 1.937 3.654l7.94 5.366h22.6c.397 0 .779.159 1.06.441a1.511 1.511 0 0 1 0 2.13 1.498 1.498 0 0 1-1.06.441H29.51a1.499 1.499 0 0 1-1.5-1.506 1.499 1.499 0 0 1 1.5-1.506h22.598l7.94-5.366a4.397 4.397 0 0 0 1.938-3.654v-7.898h-34.82c-4.19 0-7.6-3.423-7.6-7.63V33.179c0-4.208 3.41-7.63 7.6-7.63h6.825V7.363c0-3.841 3.113-6.966 6.94-6.966h68.139c3.826 0 6.939 3.125 6.939 6.966v18.184h6.825c4.191 0 7.6 3.423 7.6 7.63ZM22.566 34.585h11.425V28.56h-6.825c-2.537 0-4.6 2.072-4.6 4.619v1.405Zm62.448 104.384v-7.898H64.986v7.898a7.432 7.432 0 0 1-.865 3.486 7.397 7.397 0 0 1-2.397 2.667l-4.243 2.867h35.038l-4.243-2.867a7.396 7.396 0 0 1-2.397-2.667 7.433 7.433 0 0 1-.865-3.486Zm42.42-23.062H22.566v7.534c0 2.546 2.063 4.618 4.6 4.618h95.668c2.537 0 4.6-2.072 4.6-4.618v-7.534Zm0-78.31h-11.425v71.235c0 .4-.158.783-.439 1.065a1.496 1.496 0 0 1-2.122 0 1.508 1.508 0 0 1-.439-1.065v-91.29h-10.98a1.499 1.499 0 0 1-1.5-1.506 1.499 1.499 0 0 1 1.5-1.506h10.98V7.364c0-2.18-1.767-3.954-3.939-3.954H40.93c-2.172 0-3.939 1.774-3.939 3.954v7.165h53.07c.398 0 .78.158 1.06.44a1.509 1.509 0 0 1-1.06 2.572h-53.07v91.29c0 .4-.158.783-.44 1.065a1.495 1.495 0 0 1-2.12 0 1.507 1.507 0 0 1-.44-1.065V37.596H22.566v75.298h104.868V37.596Zm0-4.417c0-2.547-2.063-4.619-4.6-4.619h-6.825v6.024h11.425V33.18ZM96.37 14.529h-1.258c-.398 0-.78.158-1.06.44a1.509 1.509 0 0 0 1.06 2.572h1.258c.397 0 .779-.159 1.06-.441a1.51 1.51 0 0 0 0-2.13 1.497 1.497 0 0 0-1.06-.441ZM44.1 7.463h-1.3c-.398 0-.78.159-1.06.441a1.51 1.51 0 0 0 1.06 2.571h1.3c.398 0 .78-.158 1.06-.44a1.51 1.51 0 0 0 0-2.13 1.497 1.497 0 0 0-1.06-.442Zm6.6 0h-1.3c-.398 0-.78.159-1.06.441a1.51 1.51 0 0 0 1.06 2.571h1.3c.398 0 .78-.158 1.06-.44a1.51 1.51 0 0 0 0-2.13 1.497 1.497 0 0 0-1.06-.442Zm6.6 0H56c-.398 0-.78.159-1.06.441A1.51 1.51 0 0 0 56 10.475h1.3c.398 0 .78-.158 1.06-.44a1.51 1.51 0 0 0 0-2.13 1.497 1.497 0 0 0-1.06-.442Zm34.16 24.503v23.596c0 2.608-2.112 4.729-4.71 4.729h-23.5c-2.598 0-4.71-2.121-4.71-4.729V31.966c0-2.607 2.112-4.729 4.71-4.729h23.5c2.598 0 4.71 2.122 4.71 4.73Zm-3 0c0-.946-.766-1.717-1.71-1.717h-23.5c-.454 0-.889.182-1.21.504-.32.322-.5.758-.5 1.213v23.596c0 .947.766 1.717 1.71 1.717h23.5c.944 0 1.71-.77 1.71-1.717V31.966Zm3 42.907v23.595c0 2.608-2.112 4.729-4.71 4.729h-23.5c-2.598 0-4.71-2.121-4.71-4.729V74.873c0-2.608 2.112-4.73 4.71-4.73h23.5c2.598.001 4.71 2.122 4.71 4.73Zm-3 0c0-.947-.766-1.717-1.71-1.717h-23.5c-.454 0-.889.181-1.21.503-.32.322-.5.758-.5 1.214v23.595c0 .947.766 1.717 1.71 1.717h23.5c.944 0 1.71-.77 1.71-1.717V74.873Zm-4.975-31.109a2.257 2.257 0 0 1-1.097 1.945l-11.792 7.11a2.252 2.252 0 0 1-3.114-.802 2.28 2.28 0 0 1-.308-1.142V36.653a2.28 2.28 0 0 1 1.146-1.975 2.255 2.255 0 0 1 2.276.03l11.792 7.111a2.247 2.247 0 0 1 1.097 1.945Zm-3.698 0-9.614-5.797V49.56l9.614-5.797Zm-10.962 41.4h-.9c-.398 0-.78.16-1.06.442a1.509 1.509 0 0 0 1.06 2.57h.9c.398 0 .78-.158 1.06-.44a1.509 1.509 0 0 0-1.06-2.572Zm6.625 0h-.9c-.398 0-.78.16-1.06.442a1.509 1.509 0 0 0 1.06 2.57h.9c.398 0 .78-.158 1.06-.44a1.509 1.509 0 0 0-1.06-2.572Zm6.625 0h-.9c-.398 0-.78.16-1.06.442a1.509 1.509 0 0 0 1.06 2.57h.9c.398 0 .78-.158 1.06-.44a1.509 1.509 0 0 0-1.06-2.572Z"/></g><defs><clipPath id="a"><path fill="#fff" d="M0 .398h150V151H0z"/></clipPath></defs></svg>