<svg xmlns="http://www.w3.org/2000/svg" width="170" height="170" fill="none"><path fill="#0E3850" d="m106.381 87.631-10.81-4.788a2.116 2.116 0 0 1-1.257-1.928v-2.959c3.632-2.884 5.966-7.325 5.966-12.302V61.49a3.84 3.84 0 0 0 1.988-3.358v-.404c0-8.672-7.079-15.727-15.779-15.727h-3.977c-8.7 0-15.779 7.055-15.779 15.727v3.668c0 1.253.541 2.389 1.485 3.115.16.123.328.232.504.325v.82c0 4.976 2.334 9.417 5.965 12.3v2.96a2.106 2.106 0 0 1-1.257 1.927l-10.81 4.79a9.788 9.788 0 0 0-5.829 8.937v24.576c0 .492.196.963.545 1.311a1.862 1.862 0 0 0 3.176-1.311V96.57c0-.215.015-.427.038-.638l4.981 4.965a4.069 4.069 0 0 1 1.202 2.893v17.355c0 .492.196.964.545 1.311a1.862 1.862 0 0 0 3.176-1.311V103.79a7.735 7.735 0 0 0-2.292-5.515l-5.939-5.92a6.077 6.077 0 0 1 1.908-1.335l10.628-4.708 7.882 7.856v26.977c0 .492.195.963.544 1.311a1.862 1.862 0 0 0 3.176-1.311V94.168l7.882-7.856 10.628 4.708a6.073 6.073 0 0 1 1.907 1.336l-5.938 5.919a7.733 7.733 0 0 0-2.293 5.515v17.355c0 .492.197.964.545 1.311a1.862 1.862 0 0 0 3.176-1.311V103.79a4.053 4.053 0 0 1 1.203-2.893l4.981-4.965c.022.21.037.423.037.637v24.576c0 .492.196.963.545 1.311a1.863 1.863 0 0 0 3.176-1.311V96.57a9.79 9.79 0 0 0-5.829-8.939Zm-21.88 3.147-6.917-6.894a5.793 5.793 0 0 0 .823-2.97v-.754a15.737 15.737 0 0 0 6.093 1.221c2.16 0 4.217-.435 6.093-1.22v.754c0 1.067.297 2.087.823 2.97L84.5 90.778Zm0-13.105c-6.65 0-12.059-5.392-12.059-12.019v-.834c1.16-.458 2.294-1.188 3.379-2.185a1.851 1.851 0 0 0-1.188-3.216 1.863 1.863 0 0 0-1.336.49c-.93.856-1.86 1.41-2.762 1.644a.307.307 0 0 1-.05.01.375.375 0 0 1-.031-.168v-3.668c0-6.627 5.41-12.018 12.058-12.018h3.977c6.649 0 12.058 5.391 12.058 12.018v.405c0 .06-.036.112-.084.121-11.14 2.193-16.727-1.94-18.612-3.819a1.864 1.864 0 0 0-2.631 0 1.85 1.85 0 0 0 0 2.622c5.777 5.758 14.207 5.862 19.339 5.248v3.35c0 6.627-5.41 12.019-12.059 12.019Zm-29.955-.127v-3.964c0-4.838-2.522-9.096-6.322-11.546a7.801 7.801 0 0 0 .357-2.327c0-4.301-3.51-7.8-7.825-7.8s-7.826 3.5-7.826 7.8c0 .8.122 1.578.357 2.327-3.8 2.45-6.322 6.709-6.322 11.546v3.963c0 4.684 2.365 8.826 5.965 11.31v4.077a2.093 2.093 0 0 1-1.17 1.887l-6.434 3.206A7.755 7.755 0 0 0 21 105.002v16.144c0 .491.196.963.545 1.311a1.867 1.867 0 0 0 2.63 0c.35-.348.546-.82.546-1.311v-15.342l3.03 3.02a4.063 4.063 0 0 1 1.203 2.893v9.429c0 .491.196.963.544 1.311a1.867 1.867 0 0 0 2.631 0c.35-.348.545-.82.545-1.311v-9.429a7.736 7.736 0 0 0-2.292-5.515l-4.218-4.204c-.02-.02-.042-.038-.063-.057.27-.237.568-.438.889-.599l6.434-3.206c.325-.163.634-.355.923-.574l4.548 4.534v19.05c0 .492.196.963.545 1.311a1.862 1.862 0 0 0 3.176-1.311v-19.051l4.549-4.533c.289.219.598.411.922.574l1.775.884a1.866 1.866 0 0 0 2.453-.85 1.85 1.85 0 0 0-.79-2.467l-1.774-.884a2.102 2.102 0 0 1-1.17-1.886v-4.078c3.6-2.483 5.965-6.625 5.965-11.31Zm-13.79-21.928c2.263 0 4.104 1.835 4.104 4.09 0 .25-.022.493-.065.731-1.309-.4-2.67-.603-4.04-.603-1.403 0-2.757.212-4.033.602a4.116 4.116 0 0 1-.071-.73c0-2.255 1.841-4.09 4.105-4.09Zm0 7.927c5.552 0 10.07 4.503 10.07 10.037v.672c-7.746 2.363-12.361-3.51-12.559-3.767a1.86 1.86 0 0 0-2.138-.624c-.25.093-.477.238-.665.426-1.776 1.77-3.515 2.624-4.771 3.036.137-5.416 4.597-9.78 10.063-9.78Zm0 35.16-4.3-4.285c.126-.478.195-.977.195-1.488v-2.263c1.297.404 2.676.621 4.105.621 1.428 0 2.807-.217 4.104-.621v2.263c0 .511.07 1.01.195 1.488l-4.3 4.285Zm0-11.123c-5.553 0-10.07-4.503-10.07-10.037v-.384c1.483-.34 3.683-1.13 5.978-2.969.812.764 1.972 1.7 3.45 2.504a14.835 14.835 0 0 0 7.11 1.829c1.12 0 2.319-.13 3.586-.428-.289 5.279-4.688 9.485-10.054 9.485Zm102.919 6.48-10.412-5.189a2.105 2.105 0 0 1-1.17-1.886v-2.628c2.438-2.157 3.977-5.3 3.977-8.795v-2.111l.128.001c.494 0 .967-.195 1.316-.543.349-.348.545-.82.545-1.311v-3.964c0-6.486-5.295-11.763-11.803-11.763h-3.977c-6.507 0-11.802 5.277-11.802 11.763V71.6c0 .492.196.963.545 1.311a1.863 1.863 0 0 0 1.443.54v2.113c0 3.496 1.54 6.639 3.977 8.795v2.628a2.1 2.1 0 0 1-1.17 1.887 1.862 1.862 0 0 0-.933 1.072 1.847 1.847 0 0 0 1.177 2.346c.468.155.979.118 1.42-.102.325-.162.634-.354.923-.573l4.548 4.533v24.996c0 .492.196.963.545 1.311a1.863 1.863 0 0 0 3.176-1.311V96.15l4.549-4.534c.289.22.598.411.922.574l10.075 5.02-3.056 3.046a7.738 7.738 0 0 0-2.292 5.516v15.373c0 .492.196.964.545 1.311a1.862 1.862 0 0 0 3.176-1.311v-15.373a4.052 4.052 0 0 1 1.202-2.894l2.894-2.884c.088.335.136.685.136 1.044v20.107c0 .492.196.964.545 1.311a1.863 1.863 0 0 0 3.176-1.311v-20.107a7.754 7.754 0 0 0-4.325-6.976Zm-29.477-24.698v-1.728c0-4.441 3.625-8.055 8.081-8.055h3.977c4.456 0 8.082 3.614 8.082 8.055v2.06c-8.087-.435-12.968-3.572-13.015-3.602a1.863 1.863 0 0 0-2.348.231c-1.78 1.774-3.524 2.628-4.777 3.04Zm10.07 23.395-4.299-4.284c.125-.478.194-.977.194-1.488v-.395c1.313.487 2.704.736 4.105.735a11.786 11.786 0 0 0 4.105-.735v.395c0 .511.068 1.01.194 1.488l-4.299 4.284Zm0-9.14c-4.456 0-8.082-3.614-8.082-8.055v-2.99c1.303-.519 2.821-1.344 4.366-2.655 1.954 1.013 6.041 2.764 11.797 3.342v2.303c0 4.441-3.625 8.055-8.081 8.055Z"/><rect width="169" height="169" x=".5" y=".5" stroke="#D4CDCD" rx="84.5"/></svg>