<svg xmlns="http://www.w3.org/2000/svg" width="150" height="148" fill="none"><g clip-path="url(#a)"><path fill="#FFE07D" d="M106.691 26.489c11.349 0 17.97 7.827 17.97 19.258 0 2.257-.216 4.23-.58 5.992-1.966 9.515-33.052 15.534-43.88 1.53l26.49-26.78Z"/><path fill="#FFC250" d="m106.691 38.023-4.73 4.524S81.173 65.61 91.075 79.51c9.903 13.9 31.444 9.677 31.444 7.915 0-1.761-6.693-3.226-6.693-13.829 0-8.953 6.29-12.341 8.256-21.856-1.837-8.342-7.989-13.716-17.391-13.716Z"/><path fill="#7FCB8F" d="M111.781 99.5c5.84 1.895 10.358 3.596 14.439 5.846 13.289 7.327 19.388 40.491 19.388 40.491h-12.462s-39.269-4.187-47.698-.006l-46.615.006s-2.195-15.544-2.156-19.856c.01-1.031-5.588-30.521 7.917-31.186l67.187 4.704Z"/><path fill="#5EA570" d="M44.595 94.795c-13.505.665-15.857 7.266-19.624 12.062-5.09 6.478-12.546 30.815-9.448 30.815 6.073 0 21.164-12.722 21.155-11.691l9.544-31.072-1.627-.114Z"/><path fill="#FFCDBE" d="M111.781 99.5a553.292 553.292 0 0 0-7.627-2.395c-5.869-1.81-9.34-3.863-11.215-7.377-1.34-2.511-30.496-2.804-32.19-.4-2.643 3.749-7.26 5.448-13.578 5.413-.901-.005-1.76.014-2.577.054 0 0 11.107 9.293 32.607 9.121 21.5-.173 34.58-4.416 34.58-4.417Z"/><path fill="#EBAE9D" d="M60.749 89.328c4.577 3.264 10.679 5.548 16.452 5.548 5.772 0 11.164-1.885 15.742-5.15-1.34-2.51-1.868-5.766-1.868-10.217h-27.75c0 4.45-1.09 8.225-2.576 9.819Zm46.46-46.578c0-1.99 1.639-3.604 3.662-3.604 2.022 0 3.662 1.614 3.662 3.604v6.276c0 3.25-1.444 5.884-7.324 5.884-5.881 0 0-12.16 0-12.16Zm-60.017 0c0-1.99-1.639-3.604-3.662-3.604-2.022 0-3.662 1.614-3.662 3.604v6.276c0 3.25 1.444 5.884 7.324 5.884s0-12.16 0-12.16Z"/><path fill="#EBAE9D" d="M77.2 6.487c0 3.598-10.112 76.855 0 76.855-16.584 0-30.029-15.543-30.029-34.716V32.081c0-16.323 30.03-29.193 30.03-25.594Z"/><path fill="#FFCDBE" d="M66.963 7.572c-4.87 5.312-8.073 14.307-8.073 24.51v16.544c0 19.173 8.198 34.716 18.31 34.716 16.585 0 30.03-15.543 30.03-34.716V35.968c0-12.333-7.674-26.788-18.579-31.219-3.529-1.433-18.766-.363-21.688 2.823Z"/><path fill="#E1DEE2" d="M58.91 54.292c-11.24 0-14.31-10.96-9.57-15.234 3.184-2.87 18.522-1.745 21.737 1.153 4.741 4.274-.925 14.081-12.166 14.081Zm24.414-14.08c3.215-2.899 18.553-4.024 21.737-1.154 4.741 4.274 1.67 15.234-9.57 15.234-11.241 0-16.908-9.807-12.167-14.08Z"/><path fill="#fff" d="M66.49 64.217c2.957 12.505 18.464 12.505 21.422 0H66.49Z"/><path fill="#FFC250" d="M59.746 23.128 77.192 2.525c-16.578.008-30.015 13.237-30.015 29.556 0 3.178-.013 6.366 0 6.776 0-7.54 3.955-14.244 12.57-15.73Z"/><path fill="#FFE07D" d="M77.206 2.525h-.015.001c-8.174.006-15.095 8.659-17.445 20.599 1.159-.2 2.402-.305 3.73-.305 11.214 0 25.175-3.952 25.175-18.07 0 7.076 5.697 14.566 10.439 18.473 4.741 3.906 8.145 10.971 8.145 19.528V32.08c-.001-16.322-13.445-29.555-30.03-29.555Z"/><path fill="#766D78" d="m85.448 145.831 6.216-29.774a4.446 4.446 0 0 1 1.574-2.558 4.573 4.573 0 0 1 2.862-1.003l39.71.005c2.217.001 3.876 2.003 3.43 4.141l-.339 1.626-46.975 27.564-6.478-.001Z"/><path fill="#544F56" d="m133.146 145.837 5.754-27.569-37.526-.005a4.574 4.574 0 0 0-2.863 1.003 4.447 4.447 0 0 0-1.574 2.558l-5.012 24.008 41.221.005Z"/><path fill="#EBAE9D" d="M42.388 72.579s-2.183 7.356-5.04 16.88c0 0-12.323-20.275-10.487-31.485 1.836-11.21 12.21-17.636 12.21-17.636l3.317 32.24Z"/><path fill="#766D78" d="M49.416 84.51c-2.366.489-4.706-1.017-5.202-3.346l-7.853-36.91c-3.164-1.504-2.055-9.662-2.055-9.662-.496-2.328 1.034-4.632 3.4-5.12 2.366-.487 4.707 1.019 5.202 3.347l9.909 46.572c.495 2.328-1.035 4.632-3.4 5.12Z"/><path fill="#FFCDBE" d="M34.306 34.592s-14.89 19.25-14.89 23.382c0 4.133 4.921 25.368 4.921 25.368s-17.022 35.117-19.176 40.33c-2.154 5.213.393 11.157 5.69 13.277 5.296 2.12 11.336-.387 13.49-5.6 1.355-3.281 8.154-25.713 13.006-41.89 2.49-8.32-2.727-13.393-4.444-21.464-1.717-8.071 3.95-11.003 10.659-11.003 2.432 0 4.133-1.673 3.61-4.135-.2-.94-1.284-4.017-4.81-4.017-7.266 0-10.993 2.63-10.993 2.63l4.993-7.215-2.056-9.663Z"/><path fill="#000" d="M133.148 148a2.21 2.21 0 0 1-1.705-.795 2.136 2.136 0 0 1-.45-1.803l5.004-23.973a2.13 2.13 0 0 1 .199-.949l.891-4.273a1.25 1.25 0 0 0-.266-1.07 1.293 1.293 0 0 0-1.011-.473l-39.71-.005a2.364 2.364 0 0 0-1.472.518 2.299 2.299 0 0 0-.812 1.315l-3.22 15.424a2.149 2.149 0 0 1-.942 1.374 2.215 2.215 0 0 1-1.653.314 2.207 2.207 0 0 1-1.394-.931 2.133 2.133 0 0 1-.315-1.628l3.22-15.423c.639-3.064 3.41-5.288 6.588-5.288l39.71.005a5.71 5.71 0 0 1 4.416 2.064 5.524 5.524 0 0 1 1.166 4.674l-.869 4.164c4.859 11.401 7.151 23.683 7.248 24.21a2.14 2.14 0 0 1-.357 1.618 2.202 2.202 0 0 1-1.414.896 2.227 2.227 0 0 1-1.644-.351 2.163 2.163 0 0 1-.91-1.392c-.018-.101-1.523-8.154-4.581-17.041l-3.567 17.091a2.16 2.16 0 0 1-.763 1.24 2.22 2.22 0 0 1-1.387.488Zm-94.317 0a2.218 2.218 0 0 1-1.441-.533c-.4-.343-.66-.816-.733-1.332-.072-.513-1.446-10.273-1.974-16.427l-.753.53c-7.144 5.031-13.921 9.551-18.34 9.596a12.66 12.66 0 0 1-5.567-.881c-3.105-1.244-5.533-3.602-6.835-6.642a12.093 12.093 0 0 1-.062-9.454c2.013-4.872 16.455-34.721 18.9-39.769-.963-4.19-4.807-21.168-4.807-25.114 0-.974 0-3.255 7.831-14.466a299.522 299.522 0 0 1 6.97-9.525c-.136-3.115 2.036-5.968 5.236-6.627 3.438-.71 6.822 1.37 7.718 4.67C45.004 14.561 59.449.362 77.201.362c9.62 0 18.664 4.184 24.812 11.478a2.137 2.137 0 0 1-.306 3.024 2.223 2.223 0 0 1-3.076-.262 27.793 27.793 0 0 0-7.195-6.067c1.436 4.803 5.26 9.612 9.059 12.74 1.355 1.118 2.584 2.46 3.667 3.98a26.603 26.603 0 0 0-.814-2.582 2.13 2.13 0 0 1 .071-1.654c.245-.52.691-.923 1.238-1.12a2.229 2.229 0 0 1 1.68.07c.529.241.938.68 1.138 1.218a30.97 30.97 0 0 1 .997 3.201c11.232.78 18.386 8.99 18.386 21.36 0 8.353-2.772 13.113-5.217 17.312-1.942 3.335-3.619 6.214-3.619 10.536 0 6.553 2.761 8.94 4.587 10.52 1.036.894 2.106 1.82 2.106 3.31 0 2.027-2.27 2.78-3.125 3.064-2.857.949-8.375 1.677-14.524.608-5.138-.894-9.666-2.88-13.36-5.83 1.01 5.281 4 7.582 11.104 9.773a552.291 552.291 0 0 1 7.714 2.424c6.024 1.959 10.581 3.685 14.769 5.995a2.167 2.167 0 0 1 1.041 1.299 2.121 2.121 0 0 1-.198 1.644 2.18 2.18 0 0 1-1.32 1.025 2.242 2.242 0 0 1-1.67-.195c-3.745-2.064-7.919-3.666-13.391-5.462-2.958.864-14.742 3.957-32.805 4.285l-9.526 40.266a2.167 2.167 0 0 1-.986 1.32 2.224 2.224 0 0 1-1.644.26 2.194 2.194 0 0 1-1.357-.948 2.134 2.134 0 0 1-.292-1.613l6.236-26.361c-2.428 2.854-4.946 4.582-7.371 4.955-2.244.347-4.29-.47-5.758-2.3-1.538-1.916-1.989-4.243-1.27-6.552 1.08-3.469 4.66-6.76 10.332-9.596-15.604-2.048-23.74-8.708-24.142-9.044a2.159 2.159 0 0 1-.695-1.072 2.13 2.13 0 0 1 .038-1.27c.141-.411.405-.77.756-1.031a2.22 2.22 0 0 1 1.214-.434 48.668 48.668 0 0 1 2.7-.057c4.874.018 8.48-1.069 10.717-3.258 1.966-1.924 3.043-4.866 3.206-8.753-2.65-1.754-5.061-3.928-7.166-6.44l1.026 4.82a6.36 6.36 0 0 1-.94 4.877 6.55 6.55 0 0 1-4.161 2.803 6.634 6.634 0 0 1-4.955-.924 6.442 6.442 0 0 1-2.848-4.096l-.031-.147c-4.01 13.432-11.755 39.229-14.719 48.072a232.786 232.786 0 0 0 4.059-2.812 118.743 118.743 0 0 1 2.81-1.944c1.022-.671 2.181-1.432 3.481-.766.37.188.679.474.892.826.214.351.324.754.319 1.164-.038 4.105 2.114 19.385 2.135 19.538a2.127 2.127 0 0 1-.52 1.719c-.207.234-.462.42-.748.548a2.234 2.234 0 0 1-.911.194ZM33.157 39.743a276.477 276.477 0 0 0-4.395 6.085c-6.824 9.754-7.136 11.942-7.15 12.159 0 2.84 2.911 16.433 4.868 24.873.11.475.054.973-.16 1.413-.17.35-17.019 35.119-19.124 40.213a7.861 7.861 0 0 0 .04 6.144 8.04 8.04 0 0 0 4.442 4.316c4.165 1.667 8.933-.312 10.627-4.411 1.24-2.999 7.512-23.604 12.908-41.59l.027-.096c1.416-4.733-.01-8.17-1.815-12.521-1.004-2.42-2.042-4.923-2.673-7.89-.824-3.87-.234-7.053 1.752-9.46 2.24-2.714 6.063-4.15 11.057-4.15.59 0 1.067-.167 1.309-.46.198-.24.25-.596.153-1.059l-.004-.018c-.087-.403-.607-2.289-2.658-2.289a24.672 24.672 0 0 0-4.547.406c-3.397.637-5.142 1.803-5.165 1.819a2.212 2.212 0 0 1-1.638.377 2.218 2.218 0 0 1-.803-.297 2.183 2.183 0 0 1-.625-.577 2.136 2.136 0 0 1-.382-1.612 2.158 2.158 0 0 1 .887-1.406c.107-.076 1.72-1.19 4.754-2.047l-1.685-7.922Zm40.12 67.843c-7.777 3.063-11.365 6.422-12.094 8.764-.3.964-.136 1.791.517 2.604.602.75 1.139.784 1.63.708 2.41-.371 6.323-4.304 9.948-12.076ZM51.846 96.582c5.067 2.399 13.39 5.173 24.773 5.173l.516-.001c.033-.001.066-.002.099-.001 11.497-.096 20.582-1.387 26.437-2.531l-.174-.054c-9.89-3.05-13.779-7.19-14.493-16.225a28.546 28.546 0 0 1-11.802 2.561c-4.195 0-8.205-.922-11.883-2.597-.508 3.987-1.954 7.167-4.318 9.481-2.246 2.199-5.315 3.602-9.155 4.194Zm42.427-16.688c7.954 8.42 19.925 7.887 24.711 6.832-2.189-1.977-5.355-5.517-5.355-13.13 0-5.474 2.135-9.14 4.2-12.687 2.279-3.913 4.636-7.96 4.636-15.162 0-9.583-4.992-15.867-13.206-16.934a31.7 31.7 0 0 1 .169 3.268v4.79a5.944 5.944 0 0 1 1.444-.176c3.231 0 5.859 2.587 5.859 5.767v6.276c0 3.436-1.447 7.49-8.087 7.995-1.915 9.728-7.199 18.014-14.37 23.16Zm-49.725-7.716 1.818 8.543c.119.56.457 1.044.951 1.362.494.319 1.08.429 1.65.311a2.183 2.183 0 0 0 1.384-.936 2.128 2.128 0 0 0 .316-1.624L46.16 58.65a6.702 6.702 0 0 1-2.598.505c-.615 0-1.206.027-1.767.08l2.736 12.863.017.08ZM49.69 53.58c2.046 15.607 13.604 27.598 27.51 27.598 13.907 0 25.465-11.991 27.511-27.599-2.415 1.852-5.594 2.875-9.22 2.875-6.96 0-11.944-3.302-14.36-7.063a13.272 13.272 0 0 1-.158-.252c-.427-.591-2.146-1.776-3.772-1.776-1.627 0-3.346 1.185-3.774 1.776a13.887 13.887 0 0 1-.157.252c-2.415 3.761-7.4 7.063-14.36 7.063-3.626 0-6.805-1.023-9.22-2.874Zm-12.14 6.814c-.665.363-1.215.8-1.635 1.31-1.111 1.346-1.401 3.313-.862 5.847.55 2.582 1.51 4.9 2.44 7.14.387.933.777 1.872 1.135 2.83.53-1.778 1.03-3.462 1.496-5.03L37.55 60.395Zm71.877-18.177v6.408c0 1.245-.054 2.475-.16 3.688 2.799-.46 3.069-1.949 3.069-3.576v-6.276c0-.795-.658-1.442-1.465-1.442-.346 0-.68.12-.944.34a1.44 1.44 0 0 0-.5.858ZM84.84 47.073c1.68 2.616 5.411 5.056 10.65 5.056 4.338 0 7.709-1.976 9.017-5.288.932-2.36.558-4.847-.931-6.189-.685-.618-4.003-1.344-9.235-1.022-5.27.324-8.747 1.467-9.533 2.176-1.41 1.27-.979 3.084-.596 4.052a6.943 6.943 0 0 0 .629 1.215Zm-28.72-7.492c-2.948.127-4.802.627-5.295 1.072-1.489 1.341-1.863 3.828-.93 6.188 1.307 3.312 4.678 5.288 9.016 5.288 5.24 0 8.97-2.44 10.65-5.056a6.921 6.921 0 0 0 .628-1.214c.383-.968.814-2.782-.596-4.053-.786-.709-4.263-1.852-9.533-2.176-1.043-.064-3.592-.05-3.94-.049Zm-19.663-5.427 2.7 12.69c.99-.105 2.058-.166 3.204-.166.449 0 .873.035 1.272.1l-2.876-13.515c-.248-1.167-1.414-1.92-2.6-1.674-1.185.244-1.948 1.39-1.702 2.557l.002.008Zm40.744 8.885c.76 0 1.526.117 2.27.324a7.132 7.132 0 0 1 2.369-4.747c2.819-2.54 10.071-3.17 12.227-3.303 2.734-.168 7.138-.211 10.21.882-1.125-4.83-3.449-9.004-6.603-11.603-3.174-2.615-6.675-6.542-8.91-10.99-1.59 2.997-4.078 5.48-7.41 7.354-4.613 2.596-10.964 4.026-17.882 4.026-8.592 0-12.999 5.42-13.92 11.437 2.092-.9 4.983-1.17 7.533-1.194 3.644-.23 7.387-1.719 11.684-4.636a2.214 2.214 0 0 1 1.652-.36 2.216 2.216 0 0 1 1.422.901 2.146 2.146 0 0 1 .35 1.629c-.053.28-.163.548-.323.787s-.366.444-.606.604a42.411 42.411 0 0 1-3.65 2.233c1.953.495 3.81 1.21 4.947 2.233a7.135 7.135 0 0 1 2.37 4.747 8.513 8.513 0 0 1 2.27-.324Zm0-38.352c-13.137 0-24.178 9.006-27.085 21.074 3.265-3.225 7.898-5.104 13.356-5.104 6.165 0 11.742-1.228 15.701-3.456 4.392-2.471 6.815-6.162 7.215-10.985A28.253 28.253 0 0 0 77.2 4.687Zm8.25 143.307a2.196 2.196 0 0 1-1.704-.795 2.132 2.132 0 0 1-.45-1.803l.932-4.467a2.15 2.15 0 0 1 .939-1.382 2.23 2.23 0 0 1 2.452.012c.24.161.445.366.604.605a2.142 2.142 0 0 1 .31 1.635l-.933 4.467a2.153 2.153 0 0 1-.763 1.24 2.22 2.22 0 0 1-1.387.488ZM77.2 75.758c-6.22 0-11.264-4.338-12.851-11.051a2.13 2.13 0 0 1 .419-1.835c.206-.255.467-.461.765-.603.298-.141.625-.215.956-.215H87.91c.331 0 .658.074.956.215.298.142.56.348.765.603a2.149 2.149 0 0 1 .42 1.835c-1.588 6.713-6.633 11.05-12.852 11.05Zm-7.633-9.379c1.813 3.679 5.063 5.053 7.633 5.053 2.569 0 5.819-1.375 7.633-5.053H69.567Zm14.37-32.814c-.434 0-.858-.127-1.22-.365a2.171 2.171 0 0 1-.809-.97 2.13 2.13 0 0 1 .475-2.356c3.027-2.983 9.462-2.692 14.052-1.537a2.175 2.175 0 0 1 1.346.992 2.142 2.142 0 0 1 .239 1.639c-.3 1.157-1.499 1.854-2.674 1.56-4.709-1.186-8.709-.726-9.853.402a2.194 2.194 0 0 1-1.555.635Z"/></g><defs><clipPath id="a"><path fill="#fff" d="M0 .362h150V148H0z"/></clipPath></defs></svg>