<svg xmlns="http://www.w3.org/2000/svg" width="170" height="170" fill="none"><g stroke="#0E3850" stroke-linecap="round" stroke-linejoin="round" stroke-miterlimit="10" stroke-width="3" clip-path="url(#a)"><path d="M63.449 106.932c1.38 2.305 3.116 4.31 5.123 5.919m-8.268-14.442a26.232 26.232 0 0 1-.144-8.127 25.96 25.96 0 0 1 1.901-6.816m38.301 29.412a21.749 21.749 0 0 0 3.93-4.101l.02-.028c1.874-2.542 3.246-5.509 4.025-8.702a26.24 26.24 0 0 0 .492-9.81l-.002-.016a26.157 26.157 0 0 0-1.88-6.755M71.038 51.534c3.687-2.792 8.369-4.463 13.462-4.463 11.885 0 21.518 9.095 21.518 20.312 0 2.34-.418 4.584-1.19 6.676M65.338 58.13a19.316 19.316 0 0 0-2.356 9.252c0 2.308.407 4.526 1.16 6.592m5.33 13.994h-1.09c-3.644 0-6.599-3.349-6.599-7.48v-2.093c0-2.18 1.56-3.946 3.482-3.946h3.955m30.56 0h3.924c1.923 0 3.482 1.767 3.482 3.946v2.094c0 4.13-2.955 7.479-6.599 7.479h-1.122"/><path d="M97.18 68.874c1.586 2.521 2.6 5.504 2.6 8.88v3.536c0 9.87-5.303 18.747-13.388 22.412a4.557 4.557 0 0 1-1.892.414 4.557 4.557 0 0 1-1.892-.414c-3.953-1.79-7.34-4.883-9.726-8.878-2.387-3.995-3.663-8.709-3.661-13.534v-3.535c0-9.879 9.038-16.59 15.279-17.925 2.052.438 4.377 1.418 6.58 2.883"/><path d="M80.599 90.836a7.171 7.171 0 0 0 3.9 1.172 7.171 7.171 0 0 0 3.902-1.172M63.52 116.817l-4.01 1.003c-2.764.693-4.733 3.47-4.733 6.679v24.392m23.688-47.583v7.646c0 .885-.202 1.754-.585 2.524a4.902 4.902 0 0 1-1.605 1.871m29.205 3.468 4.01 1.003c2.764.693 4.733 3.47 4.733 6.679v24.392m-23.688-47.583v7.646c0 .869.195 1.723.565 2.483.371.761.906 1.402 1.556 1.863m6.024 15.646-2.799 4.989 3.133 2.68-5.874 12.276"/><path d="m103.043 121.163 2.438-4.346-7.057-4.574c-2.406-1.559-5.46-.105-6.16 2.932L84.5 148.891l-6.035-26.205-1.729-7.511c-.7-3.038-3.754-4.492-6.16-2.932l-7.057 4.573 9.6 17.119-3.133 2.679 5.873 12.277m2.606-26.206H90.46m-5.998-63.24V48.048m.037-30.071 3.48 6.996 6.946 1.589-4.796 5.912.814 7.978L84.5 37.11l-6.444 3.342.814-7.978-4.796-5.912 6.946-1.589 3.48-6.996ZM59.421 28.343l2.842 5.714 5.673 1.297-3.917 4.829.665 6.516-5.263-2.73-5.262 2.73.664-6.516-3.916-4.829 5.673-1.297 2.841-5.714Zm50.158 0 2.841 5.714 5.674 1.297-3.917 4.829.664 6.516-5.262-2.73-5.263 2.73.665-6.516-3.917-4.829 5.673-1.297 2.842-5.714Zm11.688 21.78-2.264 4.551-4.519 1.033 3.12 3.847-.53 5.19 4.193-2.174 4.192 2.175-.529-5.191 3.12-3.847-4.519-1.033-2.264-4.552Zm-73.534 0-2.264 4.551-4.519 1.033 3.12 3.847-.529 5.19 4.192-2.174 4.193 2.175-.53-5.191 3.12-3.847-4.519-1.033-2.264-4.552Z"/></g><rect width="169" height="169" x=".5" y=".5" stroke="#D4CDCD" rx="84.5"/><defs><clipPath id="a"><path fill="#fff" d="M25 16h119v134.867H25z"/></clipPath></defs></svg>