<svg xmlns="http://www.w3.org/2000/svg" width="170" height="170" fill="none"><rect width="169" height="169" x=".5" y=".5" stroke="#D5CDCD" rx="84.5"/><path fill="#0E3850" d="M99.396 143c-14.843 0-21.716-2.309-27.82-5.572-18.232-.046-30.836-2.972-33.756-7.846-.858-1.433-.899-3.031-.115-4.499a.091.091 0 0 1 .003-.006c2.671-4.991 6.192-10.292 10.183-15.331a1.715 1.715 0 0 1 2.687 2.128 107.194 107.194 0 0 0-7.38 10.526c3.077-.177 6.871.614 10.242 1.881 6.906 2.595 11.377 5.245 15.321 7.583 1.38.818 2.69 1.594 4.018 2.317.035.017.069.036.102.056 5.904 3.2 12.192 5.335 26.515 5.335 3.337 0 6.572-.122 9.617-.362a1.713 1.713 0 1 1 .27 3.417c-3.134.247-6.461.373-9.887.373ZM40.73 126.694c-.222.414-.213.719.031 1.126 1.563 2.61 9.86 5.395 24.642 6.042-3.447-2.02-7.456-4.226-13.168-6.372-6.52-2.451-10.954-1.821-11.504-.797l-.001.001Zm76.224 14.988a1.713 1.713 0 0 1-.29-3.403c3.954-.683 5.989-1.416 6.836-1.842-6.836-25.161-19.098-51.048-29.345-61.901a314.152 314.152 0 0 0-2.933-2.147c-1.096 1.4-2.96 3.521-5.21 5.02 1.467.718 2.41 1.21 3.2 1.924 1.666 1.504 2.225 3.672 1.46 5.66-.767 1.994-2.663 3.284-4.83 3.284-.055 0-2.752-.05-5.865-.943-8.183 3.709-16.571 10.11-24.297 18.547a1.712 1.712 0 0 1-2.817-.433 1.706 1.706 0 0 1-.058-1.31c.077-.212.195-.406.347-.572 7.169-7.829 14.923-13.989 22.62-17.995-1.896-1.124-3.57-2.713-4.482-4.96-.896-2.21-.504-6.368 1.373-9.371-1.53-3.475-1.53-7.173-1.53-9.02V51.89c-6.414-1.728-7.416-5.81-7.416-8.188 0-2.546 1.497-5.01 3.814-6.277 1.899-1.038 4.035-1.156 6.049-.371 1.75-2.132 4.538-3.628 8.665-3.628.338 0 .669.008.992.025C84.155 28.807 88.56 26 95.19 26c5.186 0 9.213 2.085 10.51 5.442.336.868.599 2.28.932 4.07.384 2.06.932 5 1.713 7.214.039.085.071.174.096.264.428 1.152.925 2.078 1.5 2.531l.218.17c2.549 1.956 5.243 3.161 7.851 4.328 1.567.7 3.046 1.362 4.423 2.155.899.517 3.287 1.892 7.254 19.386.606 2.675-.467 5.25-2.801 6.721-2.119 1.336-4.723 1.384-6.679.177a389.926 389.926 0 0 1-.558 17.434 1.72 1.72 0 0 1-1.804 1.619 1.713 1.713 0 0 1-1.618-1.805c.364-6.7.554-13.41.569-20.121a140.36 140.36 0 0 1-4.138-4.008c-.62.747-1.304 1.565-2.058 2.467-.574.687-1.192 1.425-1.855 2.221-1.707 2.047-3.587 3.161-5.586 3.311a6.28 6.28 0 0 1-.641.014c3.567 5.187 7.224 11.704 10.808 19.292 5.48 11.606 10.349 24.926 13.709 37.506.156.581.053 1.196-.29 1.731-.905 1.414-4.101 2.605-9.498 3.538a1.734 1.734 0 0 1-.294.025ZM81.619 84.245c1.822.458 3.462.604 4.223.604.895 0 1.43-.562 1.631-1.087.148-.383.27-1.136-.558-1.884-.52-.47-1.372-.884-2.92-1.637l-.947-.462c-.803 1.144-1.282 2.639-1.429 4.466Zm-6.806-9.623c-.67 1.876-.682 3.874-.347 4.7.688 1.696 2.158 2.893 3.835 3.728.254-1.864.811-3.48 1.668-4.835a127.72 127.72 0 0 1-1.91-1.025 12.086 12.086 0 0 1-3.246-2.568Zm16.029-6.33c.354 0 .702.11.995.317.275.197 6.775 4.836 8.88 6.703.697.618 1.431.9 2.186.846 1.025-.077 2.136-.8 3.211-2.088.664-.797 1.282-1.537 1.858-2.225 6.275-7.507 7.076-8.532 7.076-10.236 0-.602-.487-.922-.778-1.06-.585-.276-1.281-.253-1.655.054-.926.762-6.793 6.112-8.975 8.11a1.71 1.71 0 0 1-2.176.113l-4.523-3.35c-1.217-.9-2.432-1.801-3.648-2.703-2.05-1.522-4.63-1.81-8.67-1.81a1.714 1.714 0 1 1 0-3.428c3.843 0 6.425-1.384 6.425-3.443v-8.117a13.08 13.08 0 0 1-2.343 2.494c-3.558 2.935-9.032 4.45-14.145 4.022v9.729c0 2.81.236 5.79 1.504 8.239.06.09.111.185.153.282a8.698 8.698 0 0 0 3.49 3.443c.833.457 1.672.904 2.516 1.341 3.059-1.017 6.191-4.952 7.187-6.462a1.716 1.716 0 0 1 1.432-.771Zm28.84 5.286c.751.68 1.48 1.312 2.119 1.818.99.784 2.351.558 3.259-.015.519-.326 1.678-1.275 1.29-3.04-.282-.766-2.244-2.73-4.252-4.62a7.982 7.982 0 0 1-1.661 2.582 7.68 7.68 0 0 1-2.44 1.707 97.03 97.03 0 0 0 1.685 1.568Zm6.663-1.26.001.003-.001-.002v-.001Zm-11.501-3.407.334.337c1.117-.128 2.074-.58 2.793-1.325.722-.748 1.17-1.753 1.276-2.83l-.245-.222-.93-.847c-.469 1.238-1.419 2.628-3.228 4.887Zm7.328-5.789c.83.756 1.654 1.518 2.472 2.286-2.351-8.704-3.728-10.104-3.941-10.276-1.221-.701-2.615-1.324-4.091-1.984-2.115-.946-4.449-1.99-6.759-3.485-3.14 7.233-7.129 11.998-9.279 14.239l1.795 1.33c2.195-2.005 7.132-6.506 8.069-7.276 1.411-1.16 3.49-1.359 5.296-.506a5.01 5.01 0 0 1 1.631 1.21c1.01 1.009 2.436 2.305 3.943 3.674l.864.788Zm-29.706-4.624c1.004.36 1.964.85 2.87 1.523L97 61.255V53.41c-.835.355-1.681.63-2.525.795-.03 1.538-.678 3.075-2.009 4.293Zm7.962-6.987v7.316c2.034-2.572 4.571-6.376 6.627-11.348a7.707 7.707 0 0 1-.726-.996c-1.409 1.449-3.51 3.418-5.901 5.028ZM86.63 33.97c5.361 1.446 7.846 5.545 7.846 9.406v7.31c3.792-1.085 8.225-5.27 10.371-7.632-.632-2.006-1.111-4.376-1.584-6.915-.277-1.486-.538-2.89-.759-3.462-.751-1.944-3.69-3.25-7.313-3.25-2.94 0-7.678.627-8.56 4.542ZM74.56 49.05c4.332.453 8.992-.775 11.963-3.226 2-1.65 3.083-3.697 3.223-6.092-1.045-1.287-2.739-2.297-5.143-2.695a1.709 1.709 0 0 1-.197-.03c-.666-.1-1.386-.154-2.16-.154-7.132 0-7.686 5.773-7.686 7.541v4.655Zm-3.623-9.073c-.76 0-1.371.241-1.762.455-1.233.675-2.03 1.958-2.03 3.27 0 .856 0 3.238 3.987 4.609v-3.916c0-1.416.228-2.898.736-4.298a3.72 3.72 0 0 0-.93-.12Z"/></svg>